<svg width="60" height="20" viewBox="0 0 60 20" fill="none" xmlns="http://www.w3.org/2000/svg">
<path d="M16.0613 14.8848L17.8434 5.28172L19.6255 14.8848H16.0613ZM20.3372 19.9024H23.3359L19.2662 0.390463H16.4206L12.3508 19.9024H15.3496C15.3598 18.5336 16.4723 17.4272 17.8434 17.4272C19.2145 17.4272 20.3271 18.5336 20.3372 19.9024Z" fill="white"/>
<path d="M56.0896 11.7C55.3474 11.2502 54.8096 10.8595 54.4738 10.5022C54.159 10.1661 53.9912 9.76684 53.9912 9.32553C53.9912 8.44845 54.7671 8.12781 55.3342 8.12781C56.6145 8.12781 57.0389 9.29943 57.2288 9.69303L59.4681 8.80021C59.2809 8.33071 58.5413 5.79544 55.2712 5.79544C53.3976 5.79544 51.2212 6.91171 51.2212 9.47261C51.2212 11.0486 52.2075 12.4564 54.201 13.6752C55.0404 14.2005 55.6489 14.6208 56.0057 14.978C56.3624 15.3351 56.5303 15.7554 56.5303 16.2387C56.5303 17.2265 55.7612 17.6676 55.0404 17.6676C53.5463 17.6676 52.955 16.0149 52.81 15.6611L50.5708 16.5539C50.5708 16.5539 51.4841 20 55.0614 20C56.2785 20 57.3067 19.6428 58.1041 18.9284C58.9015 18.235 59.3002 17.2893 59.3002 16.0706C59.3002 14.3809 58.3673 13.0802 56.0896 11.7Z" fill="white"/>
<path d="M44.4088 3.51221C45.3787 3.51221 46.1649 2.72601 46.1649 1.75613C46.1649 0.786325 45.3787 0.000121117 44.4088 0.000121117C43.4389 0.000121117 42.6527 0.786325 42.6527 1.75613C42.6527 2.72601 43.4389 3.51221 44.4088 3.51221Z" fill="white"/>
<path d="M42.9357 19.9024H45.882V11.1609H42.9357V19.9024Z" fill="white"/>
<path d="M31.16 8.31234H32.4034C33.5917 8.31234 34.555 9.08411 34.555 10.4684C34.555 11.8526 33.5917 12.6245 32.4034 12.6245H31.16V8.31234ZM31.16 14.8109H32.7035L34.7794 19.9024H37.9111L35.4277 14.1229C36.6463 13.3977 37.4442 12.1152 37.4442 10.3519C37.4442 7.48908 35.3418 5.89289 32.7482 5.89289H28.4088V19.9022H31.16V14.8109Z" fill="white"/>
<path d="M2.94138 7.69986H4.22464C5.54003 7.69986 6.60634 8.55562 6.60634 10.0904C6.60634 11.6252 5.54003 12.481 4.22464 12.481H2.94138V7.69986ZM2.94138 14.9584H4.43604C7.26631 14.9584 9.56077 13.2136 9.56077 10.0841C9.56077 6.95465 7.26631 5.20976 4.43604 5.20976H0V19.9024H2.94138V14.9584Z" fill="white"/>
</svg>
