<svg width="10" height="12" viewBox="0 0 10 12" fill="none" xmlns="http://www.w3.org/2000/svg">
<path d="M3.77359 11.9962C3.54684 11.9962 3.34228 11.8718 3.24001 11.6715L2.81835 10.8408L1.92389 11.1446C1.8602 11.1665 1.79363 11.1769 1.72705 11.1769C1.56301 11.1769 1.41056 11.1114 1.29574 10.9937C1.13267 10.8247 1.08636 10.5854 1.17513 10.369L2.02617 8.36013C1.94608 8.2462 1.87854 8.12753 1.81099 8.00696C1.76661 7.92816 1.72126 7.84842 1.67494 7.77437C1.61801 7.68513 1.51863 7.61867 1.38547 7.54747C1.35846 7.53323 1.33144 7.51899 1.30442 7.50475C1.16934 7.43354 1.03811 7.36519 0.911709 7.2712C0.647328 7.07468 0.502593 6.79842 0.491979 6.47184V6.43481C0.487155 6.32943 0.483295 6.21076 0.494874 6.09019C0.517067 5.86044 0.459173 5.65728 0.311544 5.44937C0.243036 5.35348 0.180318 5.2462 0.11374 5.11234C-0.0387139 4.80759 -0.037749 4.48006 0.11567 4.16487C0.181283 4.03101 0.261369 3.90665 0.331806 3.79747L0.359788 3.7538C0.459173 3.59905 0.503558 3.45 0.494874 3.29905C0.489085 3.20222 0.49005 3.10728 0.491014 3.01519C0.491014 2.96582 0.491014 2.9193 0.491014 2.87184C0.48619 2.46741 0.67338 2.14177 1.03329 1.93006C1.13171 1.87215 1.24749 1.80475 1.371 1.74589C1.55433 1.65759 1.6817 1.53228 1.7724 1.3519C1.8631 1.17057 1.95669 0.994937 2.09757 0.834494C2.28958 0.61519 2.55493 0.49462 2.8637 0.486076L2.92062 0.484177C2.96983 0.482278 3.02097 0.48038 3.07308 0.48038C3.1358 0.48038 3.19176 0.483228 3.24386 0.487975C3.27571 0.490823 3.30658 0.492721 3.33746 0.492721C3.5314 0.492721 3.71859 0.429114 3.90868 0.298101C4.01096 0.227848 4.12192 0.170886 4.21069 0.125316C4.37279 0.0417722 4.54069 0 4.71051 0C4.88033 0 5.05015 0.0417721 5.21708 0.123418C5.36278 0.19462 5.49111 0.276266 5.61558 0.355063C5.75839 0.445253 5.90119 0.488924 6.05461 0.488924C6.06619 0.488924 6.07777 0.488924 6.08935 0.488924C6.15882 0.486076 6.22926 0.485127 6.29873 0.485127H6.4618H6.53706C6.93749 0.485127 7.26073 0.672152 7.47301 1.02627C7.54827 1.15158 7.61002 1.25696 7.66792 1.37278C7.74993 1.53703 7.86765 1.6519 8.03844 1.73544C8.16001 1.79525 8.31922 1.8769 8.47071 1.98038C8.77176 2.18449 8.9329 2.48259 8.93676 2.84241L8.93869 2.92025C8.94062 3.00285 8.94255 3.09589 8.93386 3.19082C8.9107 3.42437 8.96956 3.63038 9.11912 3.83924C9.18184 3.92658 9.23201 4.01677 9.27929 4.10316L9.28701 4.11646C9.48482 4.47627 9.47517 4.85886 9.25903 5.22247C9.19824 5.32595 9.13553 5.42848 9.07377 5.53196L9.01395 5.63165C8.95895 5.72184 8.93386 5.81677 8.93579 5.92785C8.93579 6.00095 8.93676 6.07405 8.93676 6.1481V6.16234C8.93676 6.24399 8.93676 6.32658 8.93869 6.40823C8.94544 6.81171 8.76018 7.13829 8.4022 7.35285C8.29221 7.41835 8.17545 7.48291 8.03554 7.55411C7.87634 7.63576 7.7673 7.73544 7.70169 7.85981C7.64572 7.96519 7.58783 8.06962 7.5309 8.17405L8.46396 10.3377C8.55659 10.5532 8.5151 10.7934 8.35299 10.9652C8.23817 11.0877 8.08379 11.1551 7.91686 11.1551C7.85221 11.1551 7.78853 11.1446 7.72581 11.1247L6.83039 10.8313L6.41548 11.6687C6.31513 11.8718 6.10961 11.9991 5.879 11.9991H5.86259C5.62523 11.9924 5.42067 11.8557 5.32804 11.6411L4.81472 10.4497L4.32937 11.6326C4.2406 11.85 4.03701 11.9905 3.79965 12H3.77552L3.77359 11.9962ZM5.88575 11.0658L6.26785 10.294C6.34504 10.1383 6.50908 10.0367 6.68662 10.0367C6.73583 10.0367 6.78504 10.0443 6.83232 10.0595L7.65441 10.3291L6.95968 8.71804C6.81784 8.7731 6.6596 8.80063 6.48206 8.80063C6.46083 8.80063 6.43864 8.80063 6.41741 8.79968C6.36048 8.79778 6.30259 8.79683 6.24469 8.79683C6.2061 8.79683 5.98803 8.79778 5.98803 8.79778C5.92145 8.79778 5.85874 8.81013 5.80663 8.83291C5.70242 8.87753 5.60111 8.93924 5.494 9.00285C5.37339 9.07595 5.24024 9.1557 5.09068 9.2174L5.88575 11.0639V11.0658ZM2.95633 10.0481C3.13097 10.0481 3.295 10.1468 3.3722 10.3006L3.76008 11.063L4.40367 9.49557L4.27244 9.18987C4.1335 9.13101 4.00903 9.05221 3.89999 8.98006C3.70605 8.8519 3.52947 8.79304 3.34325 8.79304C3.32492 8.79304 3.30658 8.79304 3.28825 8.79494C3.21106 8.79968 3.11843 8.80443 3.02097 8.80443C2.88589 8.80443 2.76431 8.79494 2.65142 8.775L1.98371 10.3519L2.80387 10.0737C2.85308 10.0576 2.90326 10.0491 2.95536 10.0491L2.95633 10.0481ZM3.45904 8.06772C3.68096 8.06772 3.89903 8.12848 4.10455 8.2481C4.23288 8.32215 4.36122 8.39715 4.48762 8.475C4.5677 8.52437 4.642 8.5481 4.71437 8.5481C4.78674 8.5481 4.85814 8.52437 4.93726 8.4769C4.97778 8.45222 5.01734 8.42943 5.05787 8.4057C5.11576 8.37152 5.1669 8.34209 5.21611 8.31076C5.47278 8.14652 5.73137 8.06582 6.00926 8.06582C6.03531 8.06582 6.06136 8.06582 6.08838 8.06772C6.14627 8.07057 6.20706 8.07152 6.26689 8.07152H6.49364C6.65767 8.07057 6.75705 8.01645 6.83135 7.88829L6.88056 7.80285C6.92398 7.72785 6.96837 7.65285 7.00503 7.57975C7.15942 7.27595 7.39196 7.04715 7.69397 6.89905C7.803 6.84589 7.91397 6.78133 8.00853 6.72627C8.15423 6.64082 8.18124 6.55728 8.18896 6.47943C8.20054 6.35601 8.19765 6.2212 8.19572 6.09209C8.19475 6.03228 8.19379 5.97532 8.19282 5.91835C8.19282 5.66867 8.25747 5.43418 8.38773 5.22342C8.43212 5.15127 8.47554 5.07911 8.51992 5.00696L8.61352 4.85316C8.70325 4.70696 8.70518 4.58354 8.62123 4.44209C8.56141 4.34051 8.50159 4.24082 8.4408 4.14778C8.25651 3.86677 8.17545 3.58291 8.19282 3.28006C8.19958 3.16234 8.19765 3.03892 8.19572 2.91835V2.87468C8.19282 2.73323 8.1523 2.64873 8.05291 2.58418C7.92747 2.50158 7.79432 2.43228 7.68143 2.37532C7.38906 2.22816 7.16521 2.00791 7.01372 1.7193C6.95293 1.60443 6.88442 1.48671 6.82556 1.38797C6.75898 1.2769 6.68372 1.22563 6.57372 1.21519C6.52934 1.21139 6.47916 1.21139 6.4261 1.21139H6.30741C6.26785 1.21044 6.22926 1.21139 6.1897 1.21139C6.13856 1.21234 6.0932 1.21329 6.04689 1.21329C5.94654 1.21329 5.86356 1.20854 5.78733 1.1981C5.49111 1.15823 5.25664 1.01013 5.08585 0.885759C4.95173 0.787975 4.82919 0.740506 4.71147 0.740506C4.59376 0.740506 4.47411 0.787025 4.34288 0.883861C4.0399 1.10601 3.71666 1.22373 3.4079 1.22373C3.34807 1.22373 3.28825 1.21899 3.22939 1.21044C3.18501 1.21044 3.03448 1.20854 3.00361 1.20854C2.96405 1.20854 2.92834 1.20854 2.89168 1.21044C2.77203 1.21614 2.69194 1.25601 2.63309 1.33766C2.54817 1.45728 2.47677 1.59019 2.41791 1.70411C2.26353 2.00316 2.03195 2.23101 1.72801 2.38196C1.65275 2.41899 1.57459 2.46361 1.49933 2.50538L1.41539 2.55285C1.28223 2.6269 1.22723 2.72563 1.2282 2.88228C1.2282 2.94494 1.2282 3.08829 1.2282 3.08829C1.2282 3.18323 1.2282 3.27816 1.23013 3.3731C1.23398 3.6038 1.17416 3.82215 1.05355 4.02342L1.03908 4.04715C0.967673 4.16582 0.897236 4.28354 0.822939 4.40032C0.7168 4.56835 0.715835 4.70791 0.818114 4.86551C0.836447 4.89399 0.853816 4.92342 0.871184 4.9538C0.887587 4.98228 0.903025 5.00981 0.921358 5.03449C1.15969 5.36108 1.2639 5.72563 1.22916 6.11867C1.22337 6.18418 1.22434 6.25443 1.22627 6.32848V6.39968C1.22916 6.58101 1.30056 6.65032 1.37004 6.69399L1.40863 6.71867C1.46267 6.7538 1.51381 6.78608 1.56109 6.80696C1.99529 6.99683 2.30792 7.29968 2.49028 7.70506C2.50765 7.74399 2.53274 7.78481 2.56168 7.83228C2.57326 7.85127 2.58484 7.87025 2.59545 7.88924C2.66975 8.01551 2.76817 8.06867 2.92641 8.06867C3.09913 8.06867 3.27185 8.06867 3.4436 8.06677H3.45518L3.45904 8.06772Z" fill="white"/>
</svg>
