<svg width="90" height="44" viewBox="0 0 90 44" fill="none" xmlns="http://www.w3.org/2000/svg">
<path d="M71.0423 44C69.4626 44 68.0824 43.7287 66.9016 43.1862C65.7368 42.6277 64.7714 41.9017 64.0055 41.0082C63.2396 40.0986 62.6651 39.1173 62.2822 38.0642C61.9152 37.0111 61.7317 35.9978 61.7317 35.0245V34.4979C61.7317 33.4129 61.9232 32.3438 62.3061 31.2907C62.705 30.2216 63.2954 29.2562 64.0773 28.3946C64.8592 27.5329 65.8325 26.8468 66.9973 26.3362C68.1622 25.8096 69.5105 25.5463 71.0423 25.5463C72.5741 25.5463 73.9224 25.8096 75.0873 26.3362C76.2521 26.8468 77.2254 27.5329 78.0073 28.3946C78.7892 29.2562 79.3796 30.2216 79.7785 31.2907C80.1774 32.3438 80.3768 33.4129 80.3768 34.4979V35.0245C80.3768 35.9978 80.1854 37.0111 79.8024 38.0642C79.4195 39.1173 78.845 40.0986 78.0791 41.0082C77.3132 41.9017 76.3399 42.6277 75.1591 43.1862C73.9943 43.7287 72.622 44 71.0423 44ZM71.0423 40.338C71.872 40.338 72.614 40.1944 73.2682 39.9072C73.9384 39.6199 74.5049 39.221 74.9676 38.7104C75.4463 38.1998 75.8053 37.6094 76.0447 36.9393C76.284 36.2691 76.4037 35.551 76.4037 34.7851C76.4037 33.9713 76.276 33.2294 76.0207 32.5592C75.7814 31.8731 75.4224 31.2827 74.9437 30.788C74.4809 30.2774 73.9224 29.8865 73.2682 29.6152C72.614 29.344 71.872 29.2083 71.0423 29.2083C70.2126 29.2083 69.4706 29.344 68.8164 29.6152C68.1622 29.8865 67.5957 30.2774 67.117 30.788C66.6543 31.2827 66.3032 31.8731 66.0639 32.5592C65.8245 33.2294 65.7049 33.9713 65.7049 34.7851C65.7049 35.551 65.8245 36.2691 66.0639 36.9393C66.3032 37.6094 66.6543 38.1998 67.117 38.7104C67.5957 39.221 68.1622 39.6199 68.8164 39.9072C69.4706 40.1944 70.2126 40.338 71.0423 40.338Z" fill="white"/>
<path d="M51.0554 44C49.4917 44 48.1274 43.7447 46.9626 43.2341C45.7978 42.7075 44.8324 42.0054 44.0665 41.1278C43.3165 40.2502 42.7581 39.2769 42.3911 38.2078C42.0241 37.1387 41.8406 36.0696 41.8406 35.0005V34.474C41.8406 33.373 42.0241 32.2959 42.3911 31.2428C42.7581 30.1897 43.3086 29.2323 44.0426 28.3706C44.7925 27.509 45.718 26.8228 46.819 26.3122C47.936 25.8016 49.2204 25.5463 50.6725 25.5463C52.2522 25.5463 53.6484 25.8415 54.8611 26.4319C56.0738 27.0063 57.0471 27.8121 57.7811 28.8493C58.5151 29.8705 58.9379 31.0593 59.0496 32.4156H55.1243C55.0286 31.7773 54.7733 31.2189 54.3584 30.7402C53.9595 30.2615 53.4409 29.8865 52.8027 29.6152C52.1804 29.344 51.4703 29.2083 50.6725 29.2083C49.9066 29.2083 49.2204 29.344 48.6141 29.6152C48.0237 29.8865 47.5131 30.2694 47.0823 30.7641C46.6674 31.2587 46.3483 31.8491 46.1249 32.5353C45.9175 33.2054 45.8137 33.9474 45.8137 34.7612C45.8137 35.6069 45.9254 36.3808 46.1488 37.0829C46.3882 37.769 46.7312 38.3674 47.178 38.878C47.6248 39.3726 48.1753 39.7556 48.8295 40.0268C49.4997 40.2981 50.2417 40.4337 51.0554 40.4337C52.1405 40.4337 53.0819 40.2103 53.8797 39.7636C54.6776 39.3168 55.252 38.7264 55.603 37.9924L55.1243 40.6731V36.5084H58.7385V40.2422C57.9885 41.4549 56.9514 42.3884 55.627 43.0426C54.3185 43.6809 52.7947 44 51.0554 44ZM50.5528 37.2743V34.45H60.1746V37.2743H50.5528Z" fill="white"/>
<path d="M30.4654 44C28.8857 44 27.5055 43.7287 26.3247 43.1862C25.1599 42.6277 24.1945 41.9017 23.4286 41.0082C22.6627 40.0986 22.0882 39.1173 21.7053 38.0642C21.3383 37.0111 21.1548 35.9978 21.1548 35.0245V34.4979C21.1548 33.4129 21.3463 32.3438 21.7292 31.2907C22.1281 30.2216 22.7185 29.2562 23.5004 28.3946C24.2823 27.5329 25.2556 26.8468 26.4204 26.3362C27.5852 25.8096 28.9336 25.5463 30.4654 25.5463C31.9972 25.5463 33.3455 25.8096 34.5104 26.3362C35.6752 26.8468 36.6485 27.5329 37.4304 28.3946C38.2123 29.2562 38.8027 30.2216 39.2016 31.2907C39.6005 32.3438 39.7999 33.4129 39.7999 34.4979V35.0245C39.7999 35.9978 39.6085 37.0111 39.2255 38.0642C38.8425 39.1173 38.2681 40.0986 37.5022 41.0082C36.7363 41.9017 35.7629 42.6277 34.5822 43.1862C33.4173 43.7287 32.0451 44 30.4654 44ZM30.4654 40.338C31.2951 40.338 32.0371 40.1944 32.6913 39.9072C33.3615 39.6199 33.928 39.221 34.3907 38.7104C34.8694 38.1998 35.2284 37.6094 35.4678 36.9393C35.7071 36.2691 35.8268 35.551 35.8268 34.7851C35.8268 33.9713 35.6991 33.2294 35.4438 32.5592C35.2045 31.8731 34.8454 31.2827 34.3668 30.788C33.904 30.2774 33.3455 29.8865 32.6913 29.6152C32.0371 29.344 31.2951 29.2083 30.4654 29.2083C29.6357 29.2083 28.8937 29.344 28.2395 29.6152C27.5852 29.8865 27.0188 30.2774 26.5401 30.788C26.0774 31.2827 25.7263 31.8731 25.487 32.5592C25.2476 33.2294 25.128 33.9713 25.128 34.7851C25.128 35.551 25.2476 36.2691 25.487 36.9393C25.7263 37.6094 26.0774 38.1998 26.5401 38.7104C27.0188 39.221 27.5852 39.6199 28.2395 39.9072C28.8937 40.1944 29.6357 40.338 30.4654 40.338Z" fill="white"/>
<path d="M9.09253 43.5453V26.0729H13.0178V43.5453H9.09253ZM12.5391 43.5453V40.0987H19.8632V43.5453H12.5391Z" fill="white"/>
<path d="M77.1907 17.7117V14.0497H80.4459C81.2596 14.0497 81.9936 13.93 82.6479 13.6907C83.3021 13.4354 83.8606 13.0843 84.3233 12.6375C84.786 12.1748 85.1371 11.6243 85.3764 10.986C85.6158 10.3318 85.7354 9.61378 85.7354 8.83191C85.7354 8.01813 85.6158 7.29211 85.3764 6.65385C85.1371 6.01559 84.786 5.47307 84.3233 5.02629C83.8606 4.57951 83.3021 4.24443 82.6479 4.02104C81.9936 3.78169 81.2596 3.66201 80.4459 3.66201H77.1907V0H80.2304C81.8101 0 83.1904 0.231369 84.3712 0.694108C85.5519 1.15685 86.5412 1.78713 87.3391 2.58495C88.1369 3.38278 88.7273 4.30027 89.1102 5.33744C89.5091 6.35866 89.7086 7.43572 89.7086 8.56863V9.0952C89.7086 10.1483 89.5091 11.1935 89.1102 12.2306C88.7273 13.2519 88.1369 14.1773 87.3391 15.0071C86.5412 15.8209 85.5519 16.4751 84.3712 16.9697C83.1904 17.4644 81.8101 17.7117 80.2304 17.7117H77.1907ZM73.7441 17.7117V0H77.6694V17.7117H73.7441Z" fill="white"/>
<path d="M52.7781 17.616V0.143616H59.2165L65.7986 14.4326H66.6124L66.1337 14.8635V0.143616H69.8196V17.616H63.3333L56.7512 3.32693H55.9375L56.4162 2.89611V17.616H52.7781Z" fill="white"/>
<path d="M32.4041 17.616L38.1723 0.143616H44.515L50.4987 17.616H46.4298L41.595 2.84824L42.8396 3.35087H39.752L41.0445 2.84824L36.3293 17.616H32.4041ZM36.7841 13.2838L37.9808 10.0287H44.8262L46.0468 13.2838H36.7841Z" fill="white"/>
<path d="M16.572 17.616V0H20.4973V17.616H16.572ZM27.1751 17.616L22.0531 10.1005H26.3613L31.7227 17.616H27.1751ZM19.4442 12.0152V8.92765H23.7524C24.3269 8.92765 24.8215 8.81596 25.2364 8.59257C25.6672 8.35322 25.9943 8.02611 26.2177 7.61124C26.4571 7.18042 26.5767 6.68577 26.5767 6.12729C26.5767 5.56881 26.4571 5.08214 26.2177 4.66727C25.9943 4.23645 25.6672 3.90934 25.2364 3.68595C24.8215 3.4466 24.3269 3.32693 23.7524 3.32693H19.4442V0H23.4413C24.8933 0 26.1539 0.223391 27.223 0.670174C28.2921 1.101 29.1138 1.74724 29.6883 2.60889C30.2627 3.47054 30.5499 4.55558 30.5499 5.86401V6.24696C30.5499 7.53944 30.2547 8.6165 29.6643 9.47815C29.0899 10.3238 28.2681 10.9621 27.199 11.3929C26.1459 11.8078 24.8933 12.0152 23.4413 12.0152H19.4442Z" fill="white"/>
<path d="M3.35086 17.7356V14.672H7.4437C8.1777 14.672 8.7282 14.4805 9.0952 14.0976C9.4622 13.7146 9.64569 13.1721 9.64569 12.47C9.64569 11.7679 9.4622 11.2334 9.0952 10.8664C8.7282 10.4834 8.1777 10.2919 7.4437 10.2919H3.35086V7.92239H7.25222C8.46492 7.92239 9.54198 8.07398 10.4834 8.37715C11.4248 8.66437 12.1668 9.13509 12.7093 9.7893C13.2519 10.4435 13.5231 11.3291 13.5231 12.4461V12.7811C13.5231 13.8183 13.2838 14.7119 12.8051 15.4618C12.3264 16.1958 11.6243 16.7623 10.6988 17.1612C9.77335 17.5442 8.62448 17.7356 7.25222 17.7356H3.35086ZM0 17.7356V0H3.82956V17.7356H0ZM3.35086 9.66963V7.32403H6.79746C7.54742 7.32403 8.08994 7.13255 8.42502 6.74959C8.76011 6.36664 8.92765 5.85603 8.92765 5.21777C8.92765 4.5476 8.76011 4.02103 8.42502 3.63808C8.08994 3.25512 7.54742 3.06365 6.79746 3.06365H3.35086V0H6.55812C8.56863 0 10.1084 0.422847 11.1775 1.26854C12.2626 2.11423 12.8051 3.31895 12.8051 4.88269V5.2417C12.8051 6.32675 12.5258 7.19637 11.9674 7.85059C11.4248 8.50481 10.6829 8.97552 9.74143 9.26274C8.81596 9.534 7.75485 9.66963 6.55812 9.66963H3.35086Z" fill="white"/>
</svg>
