<svg width="20" height="20" viewBox="0 0 20 20" fill="none" xmlns="http://www.w3.org/2000/svg">
<path d="M10.0004 19.9992C9.55827 19.9992 9.1164 19.8854 8.72185 19.6578L7.66913 19.0501C7.61591 19.0194 7.55507 19.0031 7.49368 19.0031H6.27819C5.3677 19.0031 4.51916 18.5134 4.06377 17.7249L3.45603 16.6722C3.42533 16.619 3.38083 16.5745 3.32761 16.5438L2.27489 15.9361C1.48634 15.4807 0.996318 14.6322 0.996318 13.7217V12.5063C0.996318 12.4449 0.979984 12.3841 0.949286 12.3306L0.34154 11.2782C-0.113847 10.4897 -0.113847 9.50996 0.34154 8.72145L0.949286 7.66878C0.979984 7.61556 0.996318 7.55473 0.996318 7.49334V6.2779C0.996318 5.36745 1.48606 4.51895 2.27461 4.06359L3.32733 3.45587C3.38055 3.42517 3.42505 3.38068 3.45603 3.32717L4.06349 2.27479C4.51888 1.48628 5.36741 0.996272 6.27791 0.996272H7.4934C7.55479 0.996272 7.61562 0.979939 7.66885 0.949243L8.72156 0.341525C9.51011 -0.113842 10.4899 -0.113842 11.2784 0.341525L12.3311 0.949243C12.3844 0.979939 12.4452 0.996272 12.5066 0.996272H13.7221C14.6326 0.996272 15.4811 1.48628 15.9365 2.27479L16.5443 3.32745C16.575 3.38068 16.6194 3.42517 16.673 3.45615L17.7251 4.06359C18.5137 4.51895 19.0037 5.36717 19.0037 6.2779V7.49334C19.0037 7.55473 19.02 7.61556 19.0507 7.66878L19.6585 8.72173C20.1138 9.51024 20.1138 10.4897 19.6585 11.2785L19.171 12.123C19.0617 12.3126 19.0037 12.5283 19.0037 12.7471V13.7223C19.0037 14.6328 18.5139 15.4813 17.7251 15.9366L16.6724 16.5443C16.6192 16.575 16.5747 16.6195 16.544 16.6728L15.9362 17.7254C15.4808 18.5139 14.6323 19.0039 13.7218 19.0039H12.5063C12.4449 19.0039 12.3841 19.0203 12.3306 19.051L11.2782 19.6587C10.8839 19.8862 10.4417 20 9.99958 20L10.0004 19.9992ZM6.27847 2.82309C6.01853 2.82309 5.77633 2.96277 5.64622 3.18806L5.03848 4.24072C4.84754 4.57133 4.57211 4.84675 4.24176 5.03768L3.18877 5.64568C2.96375 5.77579 2.82378 6.01769 2.82378 6.27762V7.49306C2.82378 7.87492 2.72296 8.25144 2.53202 8.58205L1.92427 9.63471C1.79416 9.85972 1.79416 10.1396 1.92427 10.3647L2.53202 11.4173C2.72296 11.7482 2.82378 12.1247 2.82378 12.5063V13.7217C2.82378 13.9817 2.96375 14.2239 3.18877 14.354L4.24148 14.9617C4.57211 15.1526 4.84782 15.4283 5.03876 15.7589L5.6465 16.8116C5.77633 17.0366 6.01881 17.1766 6.27875 17.1766H7.49424C7.87613 17.1766 8.25266 17.2774 8.58329 17.4683L9.636 18.076C9.8613 18.2061 10.141 18.2061 10.366 18.076L11.4187 17.4683C11.7493 17.2774 12.1258 17.1766 12.5077 17.1766H13.7232C13.9832 17.1766 14.2254 17.0369 14.3555 16.8116L14.9632 15.7592C15.1539 15.4286 15.4296 15.1529 15.7605 14.962L16.8129 14.3542C17.0379 14.2241 17.1779 13.982 17.1779 13.722V12.7468C17.1779 12.2078 17.3204 11.6761 17.5899 11.2092L18.0774 10.3649C18.2072 10.1396 18.2075 9.86028 18.0774 9.635L17.4697 8.58205C17.2787 8.25144 17.1779 7.87492 17.1779 7.49306V6.27762C17.1779 6.01769 17.0379 5.77551 16.8129 5.64568L15.7602 5.03796C15.4293 4.84675 15.1539 4.57133 14.9629 4.24072L14.3552 3.18806C14.2251 2.96305 13.9829 2.82309 13.7229 2.82309H12.5074C12.1258 2.82309 11.749 2.72227 11.4184 2.53134L10.3657 1.92362C10.1404 1.79351 9.86074 1.79351 9.63572 1.92362L8.583 2.53134C8.25238 2.72227 7.87584 2.82309 7.49396 2.82309H6.27847Z" fill="#FDFDFD"/>
</svg>
