<svg width="100" height="34" viewBox="0 0 100 34" fill="none" xmlns="http://www.w3.org/2000/svg">
<path d="M27.0082 25.0298L30.005 8.88151L33.0017 25.0298H27.0082ZM34.1985 33.4672H39.2411L32.3975 0.65649H27.6125L20.7689 33.4672H25.8115C25.8286 31.1656 27.6993 29.305 30.005 29.305C32.3106 29.305 34.1815 31.1656 34.1985 33.4672Z" fill="white"/>
<path d="M94.3188 19.6744C93.0708 18.9181 92.1665 18.261 91.6017 17.6603C91.0724 17.095 90.7903 16.4237 90.7903 15.6816C90.7903 14.2067 92.095 13.6675 93.0486 13.6675C95.2015 13.6675 95.9152 15.6377 96.2346 16.2996L100 14.7982C99.6854 14.0087 98.4416 9.74547 92.9427 9.74547C89.7922 9.74547 86.1324 11.6226 86.1324 15.9289C86.1324 18.5791 87.7908 20.9465 91.143 22.9958C92.5546 23.8792 93.5779 24.586 94.1778 25.1866C94.7776 25.7872 95.0599 26.494 95.0599 27.3066C95.0599 28.9676 93.7667 29.7095 92.5546 29.7095C90.0421 29.7095 89.0478 26.9302 88.804 26.3353L85.0385 27.8367C85.0385 27.8367 86.5744 33.6315 92.5899 33.6315C94.6365 33.6315 96.3655 33.0308 97.7064 31.8295C99.0474 30.6635 99.7178 29.0733 99.7178 27.0239C99.7178 24.1826 98.1491 21.9954 94.3188 19.6744Z" fill="white"/>
<path d="M74.6768 5.90594C76.3077 5.90594 77.6298 4.58388 77.6298 2.95295C77.6298 1.32215 76.3077 9.10759e-05 74.6768 9.10759e-05C73.0458 9.10759e-05 71.7238 1.32215 71.7238 2.95295C71.7238 4.58388 73.0458 5.90594 74.6768 5.90594Z" fill="white"/>
<path d="M72.1996 33.4675H77.154V18.7681H72.1996V33.4675Z" fill="white"/>
<path d="M52.3979 13.9775H54.4888C56.487 13.9775 58.1069 15.2753 58.1069 17.603C58.1069 19.9307 56.487 21.2286 54.4888 21.2286H52.3979V13.9775ZM52.3979 24.9053H54.9934L58.4842 33.467H63.7504L59.5744 23.7484C61.6236 22.5289 62.9653 20.3723 62.9653 17.4071C62.9653 12.5931 59.4299 9.909 55.0686 9.909H47.7716V33.4667H52.3979V24.9053Z" fill="white"/>
<path d="M4.94615 12.9478H7.10406C9.31598 12.9478 11.1091 14.3868 11.1091 16.9677C11.1091 19.5486 9.31598 20.9877 7.10406 20.9877H4.94615V12.9478ZM4.94615 25.1535H7.45953C12.2189 25.1535 16.0772 22.2195 16.0772 16.9571C16.0772 11.6947 12.2189 8.76051 7.45953 8.76051H0V33.4672H4.94615V25.1535Z" fill="white"/>
</svg>
