<svg width="62" height="30" viewBox="0 0 62 30" fill="none" xmlns="http://www.w3.org/2000/svg">
<path d="M48.4377 30C47.3607 30 46.4196 29.8151 45.6145 29.4452C44.8203 29.0644 44.1621 28.5694 43.6399 27.9601C43.1177 27.34 42.726 26.6709 42.4649 25.9529C42.2147 25.2348 42.0896 24.544 42.0896 23.8803V23.5213C42.0896 22.7815 42.2202 22.0526 42.4813 21.3346C42.7532 20.6056 43.1558 19.9474 43.6889 19.3599C44.222 18.7725 44.8856 18.3046 45.6798 17.9565C46.474 17.5975 47.3933 17.418 48.4377 17.418C49.4822 17.418 50.4015 17.5975 51.1957 17.9565C51.9899 18.3046 52.6535 18.7725 53.1866 19.3599C53.7197 19.9474 54.1222 20.6056 54.3942 21.3346C54.6662 22.0526 54.8022 22.7815 54.8022 23.5213V23.8803C54.8022 24.544 54.6716 25.2348 54.4105 25.9529C54.1494 26.6709 53.7578 27.34 53.2356 27.9601C52.7134 28.5694 52.0497 29.0644 51.2446 29.4452C50.4504 29.8151 49.5148 30 48.4377 30ZM48.4377 27.5032C49.0035 27.5032 49.5094 27.4053 49.9554 27.2094C50.4124 27.0136 50.7986 26.7416 51.1141 26.3935C51.4405 26.0453 51.6853 25.6428 51.8484 25.1859C52.0116 24.7289 52.0932 24.2394 52.0932 23.7172C52.0932 23.1623 52.0062 22.6564 51.8321 22.1995C51.6689 21.7317 51.4241 21.3291 51.0978 20.9919C50.7823 20.6437 50.4015 20.3772 49.9554 20.1922C49.5094 20.0073 49.0035 19.9148 48.4377 19.9148C47.872 19.9148 47.3661 20.0073 46.9201 20.1922C46.474 20.3772 46.0878 20.6437 45.7614 20.9919C45.4459 21.3291 45.2066 21.7317 45.0434 22.1995C44.8802 22.6564 44.7986 23.1623 44.7986 23.7172C44.7986 24.2394 44.8802 24.7289 45.0434 25.1859C45.2066 25.6428 45.4459 26.0453 45.7614 26.3935C46.0878 26.7416 46.474 27.0136 46.9201 27.2094C47.3661 27.4053 47.872 27.5032 48.4377 27.5032Z" fill="white"/>
<path d="M34.8105 30C33.7443 30 32.8141 29.8259 32.0199 29.4778C31.2257 29.1188 30.5675 28.6401 30.0453 28.0417C29.5339 27.4434 29.1532 26.7797 28.9029 26.0508C28.6527 25.3219 28.5276 24.5929 28.5276 23.864V23.505C28.5276 22.7543 28.6527 22.02 28.9029 21.3019C29.1532 20.5839 29.5285 19.9311 30.0289 19.3436C30.5403 18.7561 31.1713 18.2883 31.922 17.9402C32.6835 17.592 33.5593 17.418 34.5493 17.418C35.6264 17.418 36.5784 17.6192 37.4052 18.0218C38.232 18.4134 38.8957 18.9628 39.3961 19.67C39.8966 20.3663 40.1849 21.1768 40.261 22.1016H37.5847C37.5194 21.6664 37.3454 21.2856 37.0625 20.9592C36.7905 20.6328 36.4369 20.3772 36.0018 20.1922C35.5775 20.0073 35.0933 19.9148 34.5493 19.9148C34.0271 19.9148 33.5593 20.0073 33.1459 20.1922C32.7434 20.3772 32.3952 20.6383 32.1015 20.9755C31.8186 21.3128 31.601 21.7153 31.4487 22.1832C31.3073 22.6401 31.2366 23.146 31.2366 23.7008C31.2366 24.2774 31.3127 24.8051 31.465 25.2838C31.6282 25.7516 31.8621 26.1596 32.1668 26.5077C32.4714 26.845 32.8467 27.1061 33.2928 27.291C33.7497 27.476 34.2556 27.5685 34.8105 27.5685C35.5503 27.5685 36.1921 27.4162 36.7361 27.1115C37.2801 26.8069 37.6717 26.4044 37.9111 25.9039L37.5847 27.7317V24.8921H40.0489V27.4379C39.5376 28.2648 38.8304 28.9012 37.9274 29.3473C37.0353 29.7824 35.9963 30 34.8105 30ZM34.4678 25.4143V23.4887H41.028V25.4143H34.4678Z" fill="white"/>
<path d="M20.7717 30C19.6947 30 18.7536 29.8151 17.9485 29.4452C17.1543 29.0644 16.4961 28.5694 15.9739 27.9601C15.4517 27.34 15.06 26.6709 14.7989 25.9529C14.5487 25.2348 14.4236 24.544 14.4236 23.8803V23.5213C14.4236 22.7815 14.5541 22.0526 14.8152 21.3346C15.0872 20.6056 15.4898 19.9474 16.0229 19.3599C16.556 18.7725 17.2196 18.3046 18.0138 17.9565C18.808 17.5975 19.7273 17.418 20.7717 17.418C21.8162 17.418 22.7355 17.5975 23.5297 17.9565C24.3239 18.3046 24.9875 18.7725 25.5206 19.3599C26.0537 19.9474 26.4562 20.6056 26.7282 21.3346C27.0002 22.0526 27.1362 22.7815 27.1362 23.5213V23.8803C27.1362 24.544 27.0056 25.2348 26.7445 25.9529C26.4834 26.6709 26.0918 27.34 25.5696 27.9601C25.0473 28.5694 24.3837 29.0644 23.5786 29.4452C22.7844 29.8151 21.8488 30 20.7717 30ZM20.7717 27.5032C21.3375 27.5032 21.8434 27.4053 22.2894 27.2094C22.7463 27.0136 23.1326 26.7416 23.4481 26.3935C23.7744 26.0453 24.0192 25.6428 24.1824 25.1859C24.3456 24.7289 24.4272 24.2394 24.4272 23.7172C24.4272 23.1623 24.3402 22.6564 24.1661 22.1995C24.0029 21.7317 23.7581 21.3291 23.4317 20.9919C23.1162 20.6437 22.7355 20.3772 22.2894 20.1922C21.8434 20.0073 21.3375 19.9148 20.7717 19.9148C20.206 19.9148 19.7001 20.0073 19.254 20.1922C18.808 20.3772 18.4218 20.6437 18.0954 20.9919C17.7799 21.3291 17.5405 21.7317 17.3773 22.1995C17.2142 22.6564 17.1326 23.1623 17.1326 23.7172C17.1326 24.2394 17.2142 24.7289 17.3773 25.1859C17.5405 25.6428 17.7799 26.0453 18.0954 26.3935C18.4218 26.7416 18.808 27.0136 19.254 27.2094C19.7001 27.4053 20.206 27.5032 20.7717 27.5032Z" fill="white"/>
<path d="M6.19946 29.6899V17.777H8.8758V29.6899H6.19946ZM8.54942 29.6899V27.34H13.5431V29.6899H8.54942Z" fill="white"/>
<path d="M52.63 12.0762V9.57933H54.8494C55.4042 9.57933 55.9047 9.49774 56.3507 9.33454C56.7968 9.16047 57.1776 8.92113 57.4931 8.6165C57.8086 8.301 58.0479 7.92566 58.2111 7.49048C58.3743 7.04443 58.4559 6.55485 58.4559 6.02176C58.4559 5.46691 58.3743 4.9719 58.2111 4.53672C58.0479 4.10154 57.8086 3.73164 57.4931 3.42702C57.1776 3.12239 56.7968 2.89393 56.3507 2.74162C55.9047 2.57842 55.4042 2.49683 54.8494 2.49683H52.63V0H54.7025C55.7796 0 56.7206 0.157752 57.5257 0.473256C58.3308 0.788759 59.0053 1.2185 59.5493 1.76247C60.0933 2.30644 60.4958 2.932 60.7569 3.63917C61.0289 4.33545 61.1649 5.06981 61.1649 5.84225V6.20127C61.1649 6.91931 61.0289 7.63192 60.7569 8.33908C60.4958 9.03536 60.0933 9.66637 59.5493 10.2321C59.0053 10.7869 58.3308 11.233 57.5257 11.5703C56.7206 11.9075 55.7796 12.0762 54.7025 12.0762H52.63ZM50.28 12.0762V0H52.9564V12.0762H50.28Z" fill="white"/>
<path d="M35.9849 12.0109V0.0979004H40.3747L44.8625 9.84042H45.4173L45.0909 10.1342V0.0979004H47.6041V12.0109H43.1816L38.6938 2.26835H38.139L38.4654 1.9746V12.0109H35.9849Z" fill="white"/>
<path d="M22.0938 12.0109L26.0267 0.0979004H30.3512L34.431 12.0109H31.6568L28.3603 1.94196L29.2089 2.28466H27.1037L27.985 1.94196L24.7701 12.0109H22.0938ZM25.0801 9.0571L25.8961 6.8377H30.5634L31.3957 9.0571H25.0801Z" fill="white"/>
<path d="M11.2991 12.0109V0H13.9754V12.0109H11.2991ZM18.5284 12.0109L15.0362 6.88667H17.9736L21.6291 12.0109H18.5284ZM13.2574 8.1922V6.08704H16.1948C16.5865 6.08704 16.9237 6.01088 17.2066 5.85857C17.5003 5.69538 17.7234 5.47235 17.8757 5.18948C18.0389 4.89574 18.1205 4.55848 18.1205 4.1777C18.1205 3.79692 18.0389 3.4651 17.8757 3.18223C17.7234 2.88849 17.5003 2.66546 17.2066 2.51315C16.9237 2.34996 16.5865 2.26836 16.1948 2.26836H13.2574V0H15.9827C16.9727 0 17.8322 0.152312 18.5611 0.456937C19.29 0.75068 19.8503 1.1913 20.242 1.77879C20.6336 2.36627 20.8294 3.10608 20.8294 3.99819V4.25929C20.8294 5.14053 20.6282 5.87489 20.2256 6.46238C19.834 7.03899 19.2737 7.47416 18.5448 7.76791C17.8267 8.05077 16.9727 8.1922 15.9827 8.1922H13.2574Z" fill="white"/>
<path d="M2.28468 12.0925V10.0036H5.07525C5.5757 10.0036 5.95104 9.87307 6.20127 9.61197C6.4515 9.35086 6.57661 8.98096 6.57661 8.50227C6.57661 8.02357 6.4515 7.65911 6.20127 7.40889C5.95104 7.14778 5.5757 7.01723 5.07525 7.01723H2.28468V5.40163H4.9447C5.77153 5.40163 6.50589 5.50499 7.14778 5.7117C7.78967 5.90753 8.29556 6.22847 8.66546 6.67453C9.03536 7.12058 9.22031 7.72439 9.22031 8.48595V8.71442C9.22031 9.42158 9.05712 10.0308 8.73073 10.5422C8.40435 11.0426 7.92566 11.4288 7.29465 11.7008C6.66365 11.9619 5.88033 12.0925 4.9447 12.0925H2.28468ZM0 12.0925V0H2.61106V12.0925H0ZM2.28468 6.59293V4.99365H4.63463C5.14597 4.99365 5.51587 4.8631 5.74433 4.60199C5.9728 4.34089 6.08704 3.99275 6.08704 3.55757C6.08704 3.10064 5.9728 2.74161 5.74433 2.48051C5.51587 2.2194 5.14597 2.08885 4.63463 2.08885H2.28468V0H4.47144C5.84225 0 6.89211 0.288305 7.62103 0.864914C8.36084 1.44152 8.73073 2.26292 8.73073 3.3291V3.57389C8.73073 4.31369 8.54035 4.90662 8.15956 5.35267C7.78967 5.79873 7.28377 6.11967 6.64189 6.3155C6.01088 6.50045 5.2874 6.59293 4.47144 6.59293H2.28468Z" fill="white"/>
</svg>
