<svg width="781" height="124" viewBox="0 0 781 124" fill="none" xmlns="http://www.w3.org/2000/svg">
<path d="M353.423 14.7619C353.423 30 379.741 33.8095 379.741 48.0952C379.741 56.1905 370.342 58.3333 359.062 59.5238C345.433 60.9524 336.973 66.4286 336.973 74.7619C336.973 87.619 349.663 96.6667 370.342 96.6667H405.355C406.295 96.6667 407 97.1429 407 98.3333C407 99.5238 406.295 100 405.355 100H361.177C324.519 100 313.944 84.7619 313.944 69.0476C313.944 56.4286 321.229 41.4286 346.608 41.4286C363.292 41.4286 370.107 49.0476 373.632 49.0476C375.042 49.0476 376.216 48.0952 376.216 46.4286C376.216 39.7619 359.297 35.7143 344.258 32.8571C332.274 30.4762 327.104 23.5714 327.104 15.7143C327.104 7.85714 333.214 0 346.373 0L405.355 0C406.295 0 407 0.476191 407 1.66667C407 2.85714 406.295 3.33333 405.355 3.33333H370.107C358.827 3.33333 353.423 8.33333 353.423 14.7619Z" fill="white"/>
<path d="M103.16 1.19048V98.8095C103.16 99.5238 102.69 100 101.985 100H77.5463C76.8413 100 76.3714 99.5238 76.3714 98.8095V50.2381H34.3084C38.3032 52.8571 39.7131 56.9048 39.7131 61.9048V98.8095C39.7131 99.5238 39.2431 100 38.5382 100H11.9844C11.2795 100 10.8095 99.5238 10.8095 98.8095V60.7143C10.8095 50.7143 0 53.8095 0 44.7619C0 37.381 10.8095 32.8571 10.8095 24.2857L11.0445 1.19048C11.0445 0.47619 11.5145 0 12.2194 0L38.5382 0C39.2431 0 39.7131 0.47619 39.7131 1.19048V20C39.7131 26.9048 35.9533 32.1429 28.4336 36.9048C20.209 42.1429 3.75982 41.9048 3.75982 46.1905C3.75982 47.8571 5.40474 48.3333 7.98962 48.3333C11.9844 48.3333 18.7991 46.9048 24.2038 46.9048H76.3714V1.19048C76.3714 0.47619 76.8413 0 77.5463 0L101.985 0C102.69 0 103.16 0.47619 103.16 1.19048Z" fill="white"/>
<path d="M143.114 48.5714C126.43 46.4286 113.27 39.2857 113.27 25V1.19048C113.27 0.47619 113.74 0 114.445 0L137.474 0C138.179 0 138.649 0.47619 138.649 1.19048V25C138.649 35.7143 144.759 46.6667 156.038 46.6667H166.848C178.362 46.6667 184.707 35.7143 184.707 25V1.19048C184.707 0.47619 185.177 0 185.882 0L208.911 0C209.616 0 210.086 0.47619 210.086 1.19048V25C210.086 40.9524 187.762 49.7619 170.373 49.7619H157.918C151.808 49.7619 146.639 50.7143 146.639 53.8095C146.639 56.9048 151.339 57.381 157.448 57.381H168.258C176.952 57.381 181.417 61.4286 181.417 70.7143V98.8095C181.417 99.5238 180.947 100 180.242 100H153.688C152.983 100 152.513 99.5238 152.513 98.8095V69.7619C152.513 58.8095 141.704 61.4286 141.704 52.8571C141.704 50.9524 142.409 49.5238 143.114 48.5714Z" fill="white"/>
<path d="M278.698 0L220.891 0C220.186 0 219.716 0.47619 219.716 1.19048V98.8095C219.716 99.5238 220.186 100 220.891 100H245.094C245.799 100 246.269 99.5238 246.269 98.8095V63.3333C249.089 61.9048 253.084 60.7143 258.959 60.7143C264.833 60.7143 271.413 61.9048 277.523 61.9048C301.022 61.9048 314.651 45.4762 314.651 28.0952C314.651 13.5714 302.902 0 278.698 0ZM270.708 57.381C267.183 57.381 262.484 56.6667 259.429 56.6667C253.789 56.6667 249.559 57.619 246.269 59.0476V3.09524H267.418C283.163 3.09524 290.447 16.9048 290.447 30C290.447 44.0476 283.398 57.381 270.708 57.381Z" fill="white"/>
<path d="M466.106 3.14958C465.256 3.14958 464.637 3.38288 464.251 3.84948C463.864 4.23832 463.671 4.86046 463.671 5.7159L463.439 61.1251L452.654 60.5419C452.654 43.4331 452.499 30.2515 452.19 20.9972C451.881 11.6651 451.34 6.22139 450.566 4.66604C450.18 3.88837 449.523 3.26623 448.595 2.79962C447.745 2.33302 446.546 2.17749 445 2.33302V0.116649L463.671 0L467.962 0.116649C477.239 0.19442 484.313 2.25526 489.184 6.29915C494.132 10.3431 496.605 16.6811 496.605 25.3133C496.605 29.4349 496.026 33.2455 494.866 36.7451C493.706 40.1668 492.044 43.1609 489.879 45.7272C487.715 48.2157 485.086 50.1599 481.994 51.5597C478.901 52.9595 475.422 53.6983 471.557 53.7761L461.583 53.8928L461.815 50.1599H468.889C471.518 50.1599 473.799 49.5378 475.731 48.2935C477.741 47.0492 479.404 45.3383 480.718 43.1609C482.11 40.9056 483.153 38.2615 483.849 35.2286C484.545 32.1957 484.893 28.8906 484.893 25.3133C484.893 21.4249 484.545 18.0809 483.849 15.2813C483.153 12.4039 482.071 10.0709 480.602 8.28222C479.21 6.4158 477.394 5.09376 475.152 4.31609C472.987 3.46065 470.397 3.07181 467.382 3.14958H466.106ZM452.654 60.5419L463.439 61.1251C463.439 69.6018 463.439 76.7952 463.439 82.7055C463.439 88.5381 464.057 92.4653 465.294 94.4873C465.526 94.9539 466.029 95.3427 466.802 95.6538C467.575 95.8871 468.58 96.0426 469.817 96.1204V98.3368H445.928V96.2371C447.242 96.1593 448.324 95.9649 449.175 95.6538C450.025 95.3427 450.566 94.915 450.798 94.3706C451.34 93.5152 451.726 92.0765 451.958 90.0546C452.267 87.9548 452.461 85.4274 452.538 82.4722C452.615 79.5171 452.654 76.212 452.654 72.5569C452.654 68.8241 452.654 64.8191 452.654 60.5419Z" fill="white"/>
<path d="M534.234 61.825C534.234 57.6256 534.08 53.5039 533.77 49.46C533.538 45.3384 532.959 41.6833 532.031 38.4948C531.103 35.3064 529.789 32.74 528.088 30.7959C526.387 28.8517 524.145 27.8796 521.362 27.8796C518.501 27.8796 516.221 28.8906 514.52 30.9125C512.819 32.8567 511.505 35.423 510.577 38.6115C509.726 41.7999 509.147 45.455 508.837 49.5767C508.528 53.6206 508.373 57.7422 508.373 61.9417C508.373 66.2189 508.528 70.4961 508.837 74.7733C509.147 78.9727 509.726 82.7444 510.577 86.0884C511.505 89.3547 512.819 92.0376 514.52 94.1373C516.221 96.2371 518.501 97.2869 521.362 97.2869C524.145 97.2869 526.387 96.2371 528.088 94.1373C529.789 92.0376 531.103 89.3158 532.031 85.9718C532.959 82.6278 533.538 78.8561 533.77 74.6566C534.08 70.3794 534.234 66.1022 534.234 61.825ZM521.362 24.73C524.995 24.73 528.32 25.5855 531.335 27.2963C534.427 29.0072 537.056 31.4958 539.221 34.762C541.463 37.9505 543.202 41.8388 544.439 46.4271C545.754 50.9376 546.411 56.1091 546.411 61.9417C546.411 67.6965 545.754 72.9458 544.439 77.6896C543.202 82.3556 541.463 86.3995 539.221 89.8213C537.056 93.1653 534.427 95.7705 531.335 97.6369C528.32 99.5033 524.995 100.436 521.362 100.436C517.651 100.436 514.249 99.5033 511.157 97.6369C508.142 95.7705 505.513 93.1653 503.271 89.8213C501.029 86.3995 499.289 82.3556 498.052 77.6896C496.893 72.9458 496.313 67.6965 496.313 61.9417C496.313 56.1869 496.893 51.0154 498.052 46.4271C499.289 41.8388 500.99 37.9505 503.155 34.762C505.397 31.5735 508.064 29.1239 511.157 27.413C514.249 25.6243 517.651 24.73 521.362 24.73Z" fill="white"/>
<path d="M563.546 87.1383L553.225 86.905C553.225 82.1612 553.225 76.9119 553.225 71.1571C553.225 65.4023 553.147 59.8808 552.993 54.5927C552.838 49.3045 552.645 44.6773 552.413 40.7112C552.181 36.7451 551.833 34.1787 551.369 33.0122C551.06 32.4679 550.635 32.1957 550.094 32.1957C549.552 32.1179 548.973 32.1179 548.354 32.1957C547.813 32.2734 547.194 32.3901 546.499 32.5456C545.88 32.6234 545.339 32.5456 544.875 32.3123L545.571 29.8627C546.808 29.7849 548.161 29.5516 549.63 29.1627C551.176 28.7739 552.761 28.3851 554.384 27.9962C556.008 27.6074 557.631 27.2574 559.255 26.9464C560.956 26.6353 562.502 26.4798 563.894 26.4798L563.546 87.1383ZM563.43 62.0583C563.121 69.1352 563.159 74.851 563.546 79.206C564.01 83.561 564.705 86.9828 565.633 89.4713C566.638 91.8821 567.837 93.5541 569.228 94.4873C570.697 95.4205 572.321 95.926 574.099 96.0038C576.959 96.3926 579.279 95.576 581.057 93.5541C582.912 91.4544 584.381 88.7325 585.464 85.3885C586.623 82.0445 587.396 78.3117 587.783 74.19C588.247 70.0684 588.517 66.1022 588.595 62.2916C588.595 58.9476 588.44 55.3314 588.131 51.4431C587.899 47.5547 587.358 43.9774 586.507 40.7112C585.657 37.3672 584.42 34.6453 582.796 32.5456C581.25 30.3681 579.163 29.4349 576.534 29.746C574.911 29.8238 573.403 30.2515 572.011 31.0292C570.697 31.7291 569.46 32.74 568.3 34.0621C567.218 35.3841 566.29 36.9784 565.517 38.8448C564.744 40.7112 564.164 42.8887 563.778 45.3772C563.391 47.788 563.275 50.3155 563.43 52.9595C563.584 55.5259 563.584 58.5588 563.43 62.0583ZM575.49 99.6199C571.084 99.4644 567.411 98.4146 564.474 96.4704C561.613 94.4484 559.371 91.7654 557.747 88.4214C556.124 84.9997 555.042 81.0336 554.5 76.523C554.036 72.0125 553.959 67.2299 554.268 62.175C554.5 57.5867 555.235 53.1151 556.472 48.7601C557.786 44.3274 559.487 40.4001 561.574 36.9784C563.662 33.5566 566.136 30.7959 568.996 28.6961C571.934 26.5187 575.181 25.4688 578.738 25.5466C582.448 25.6243 585.696 26.5964 588.479 28.4628C591.262 30.3293 593.581 32.8956 595.437 36.1618C597.292 39.428 598.645 43.2775 599.496 47.7103C600.423 52.143 600.849 56.9257 600.771 62.0583C600.617 67.8909 599.921 73.179 598.684 77.9229C597.524 82.5889 595.862 86.555 593.697 89.8213C591.533 93.0097 588.904 95.4594 585.812 97.1703C582.796 98.8811 579.356 99.6977 575.49 99.6199ZM551.601 120.151C552.065 119.217 552.374 117.934 552.529 116.301C552.761 114.746 552.915 113.035 552.993 111.168C553.147 109.38 553.225 107.591 553.225 105.802C553.225 104.014 553.225 102.42 553.225 101.02C553.225 101.02 553.225 100.398 553.225 99.1533C553.225 97.9091 553.225 96.3537 553.225 94.4873C553.225 92.6209 553.225 90.6378 553.225 88.5381C553.225 86.3606 553.225 84.3775 553.225 82.5889C553.225 80.7225 553.225 79.1671 553.225 77.9229C553.225 76.6786 553.225 76.0176 553.225 75.9398H563.546C563.546 76.0176 563.546 76.6786 563.546 77.9229C563.546 79.1671 563.546 80.7225 563.546 82.5889C563.546 84.3775 563.546 86.3606 563.546 88.5381C563.546 90.6378 563.546 92.6209 563.546 94.4873C563.546 96.3537 563.546 97.9091 563.546 99.1533C563.546 100.398 563.546 101.059 563.546 101.136C563.546 102.536 563.546 104.092 563.546 105.802C563.623 107.591 563.7 109.38 563.778 111.168C563.855 113.035 564.01 114.746 564.242 116.301C564.474 117.856 564.821 119.14 565.285 120.151C565.595 120.695 566.213 121.084 567.141 121.317C568.069 121.628 568.88 121.784 569.576 121.784V124H547.31L547.194 121.784C547.968 121.784 548.818 121.667 549.746 121.434C550.673 121.2 551.292 120.773 551.601 120.151Z" fill="white"/>
<path d="M627.597 49.2267C627.597 45.2606 627.597 40.8667 627.597 36.0452C627.674 31.1458 627.674 26.5187 627.597 22.1637C627.52 17.8087 627.326 13.9592 627.017 10.6152C626.708 7.27125 626.283 5.05488 625.741 3.96614C625.278 3.26623 624.582 2.83851 623.654 2.68297C622.726 2.44967 621.915 2.33302 621.219 2.33302V0.116649H644.644V2.21637C643.948 2.29414 643.175 2.44967 642.325 2.68297C641.474 2.83851 640.817 3.26623 640.353 3.96614C639.735 5.13265 639.271 7.3879 638.962 10.7319C638.652 13.9981 638.459 17.8087 638.382 22.1637C638.382 26.5187 638.382 31.1069 638.382 35.9285C638.459 40.7501 638.498 45.2606 638.498 49.46C638.498 52.4152 638.459 55.6425 638.382 59.142C638.382 62.5638 638.459 65.9856 638.614 69.4073C638.846 72.8291 639.232 76.1342 639.774 79.3227C640.392 82.4334 641.281 85.1941 642.441 87.6049C643.678 90.0157 645.301 91.921 647.311 93.3208C649.321 94.7206 651.834 95.3427 654.849 95.1872C657.091 95.1872 659.024 94.8372 660.648 94.1373C662.348 93.3597 663.779 92.3876 664.938 91.2211C666.175 89.9768 667.18 88.577 667.954 87.0216C668.804 85.3885 669.422 83.6776 669.809 81.889C671.046 77.534 671.742 72.5958 671.896 67.0743C672.051 61.5528 672.128 55.6036 672.128 49.2267C672.128 47.5936 672.128 45.8438 672.128 43.9774C672.128 42.111 672.128 40.2057 672.128 38.2615C672.128 34.5287 672.128 30.8347 672.128 27.1797C672.128 23.4468 672.051 20.0251 671.896 16.9144C671.742 13.7259 671.51 11.0041 671.201 8.74883C670.969 6.49357 670.582 4.89934 670.041 3.96614C669.654 3.344 668.997 2.91628 668.07 2.68297C667.142 2.44967 666.33 2.33302 665.634 2.33302V0.116649H682.449V2.33302C681.754 2.33302 680.942 2.44967 680.014 2.68297C679.086 2.91628 678.429 3.344 678.043 3.96614C677.579 4.82158 677.192 6.29916 676.883 8.39887C676.651 10.4208 676.458 12.8705 676.303 15.7479C676.149 18.5475 676.071 21.6582 676.071 25.08C676.071 28.5017 676.071 32.0013 676.071 35.5785C676.071 37.9893 676.071 40.3612 676.071 42.6943C676.149 45.0273 676.187 47.2825 676.187 49.46C676.187 55.137 676.11 60.9696 675.955 66.9577C675.878 72.868 675.144 78.2728 673.752 83.1722C672.36 88.0715 670.002 92.1154 666.678 95.3039C663.431 98.4145 658.599 99.9699 652.182 99.9699C645.688 99.9699 640.74 98.4145 637.338 95.3039C634.014 92.1154 631.617 88.0715 630.148 83.1722C628.679 78.2728 627.868 72.8291 627.713 66.841C627.636 60.8529 627.597 54.9815 627.597 49.2267Z" fill="white"/>
<path d="M697.746 87.1383L687.425 86.905C687.425 82.1612 687.425 76.9119 687.425 71.1571C687.425 65.4023 687.348 59.8808 687.193 54.5927C687.039 49.3045 686.845 44.6773 686.613 40.7112C686.382 36.7451 686.034 34.1787 685.57 33.0122C685.26 32.4679 684.835 32.1957 684.294 32.1957C683.753 32.1179 683.173 32.1179 682.555 32.1957C682.013 32.2734 681.395 32.3901 680.699 32.5456C680.081 32.6234 679.539 32.5456 679.076 32.3123L679.771 29.8627C681.008 29.7849 682.361 29.5516 683.83 29.1627C685.376 28.7739 686.961 28.3851 688.585 27.9962C690.208 27.6074 691.832 27.2574 693.456 26.9464C695.156 26.6353 696.703 26.4798 698.094 26.4798L697.746 87.1383ZM697.63 62.0583C697.321 69.1352 697.36 74.851 697.746 79.206C698.21 83.561 698.906 86.9828 699.834 89.4713C700.839 91.8821 702.037 93.5541 703.429 94.4873C704.898 95.4205 706.521 95.926 708.299 96.0038C711.16 96.3926 713.479 95.576 715.257 93.5541C717.113 91.4544 718.582 88.7325 719.664 85.3885C720.824 82.0445 721.597 78.3117 721.983 74.19C722.447 70.0684 722.718 66.1022 722.795 62.2916C722.795 58.9476 722.641 55.3314 722.331 51.4431C722.099 47.5547 721.558 43.9774 720.708 40.7112C719.857 37.3672 718.62 34.6453 716.997 32.5456C715.451 30.3681 713.363 29.4349 710.735 29.746C709.111 29.8238 707.604 30.2515 706.212 31.0292C704.898 31.7291 703.661 32.74 702.501 34.0621C701.419 35.3841 700.491 36.9784 699.718 38.8448C698.945 40.7112 698.365 42.8887 697.978 45.3772C697.592 47.788 697.476 50.3155 697.63 52.9595C697.785 55.5259 697.785 58.5588 697.63 62.0583ZM709.691 99.6199C705.284 99.4644 701.612 98.4146 698.674 96.4704C695.814 94.4484 693.571 91.7654 691.948 88.4214C690.324 84.9997 689.242 81.0336 688.701 76.523C688.237 72.0125 688.16 67.2299 688.469 62.175C688.701 57.5867 689.435 53.1151 690.672 48.7601C691.987 44.3274 693.687 40.4001 695.775 36.9784C697.862 33.5566 700.336 30.7959 703.197 28.6961C706.135 26.5187 709.382 25.4688 712.938 25.5466C716.649 25.6243 719.896 26.5964 722.679 28.4628C725.462 30.3293 727.782 32.8956 729.637 36.1618C731.493 39.428 732.846 43.2775 733.696 47.7103C734.624 52.143 735.049 56.9257 734.972 62.0583C734.817 67.8909 734.121 73.179 732.884 77.9229C731.725 82.5889 730.063 86.555 727.898 89.8213C725.733 93.0097 723.104 95.4594 720.012 97.1703C716.997 98.8811 713.557 99.6977 709.691 99.6199ZM685.802 120.151C686.266 119.217 686.575 117.934 686.729 116.301C686.961 114.746 687.116 113.035 687.193 111.168C687.348 109.38 687.425 107.591 687.425 105.802C687.425 104.014 687.425 102.42 687.425 101.02C687.425 101.02 687.425 100.398 687.425 99.1533C687.425 97.9091 687.425 96.3537 687.425 94.4873C687.425 92.6209 687.425 90.6378 687.425 88.5381C687.425 86.3606 687.425 84.3775 687.425 82.5889C687.425 80.7225 687.425 79.1671 687.425 77.9229C687.425 76.6786 687.425 76.0176 687.425 75.9398H697.746C697.746 76.0176 697.746 76.6786 697.746 77.9229C697.746 79.1671 697.746 80.7225 697.746 82.5889C697.746 84.3775 697.746 86.3606 697.746 88.5381C697.746 90.6378 697.746 92.6209 697.746 94.4873C697.746 96.3537 697.746 97.9091 697.746 99.1533C697.746 100.398 697.746 101.059 697.746 101.136C697.746 102.536 697.746 104.092 697.746 105.802C697.824 107.591 697.901 109.38 697.978 111.168C698.056 113.035 698.21 114.746 698.442 116.301C698.674 117.856 699.022 119.14 699.486 120.151C699.795 120.695 700.414 121.084 701.341 121.317C702.269 121.628 703.081 121.784 703.777 121.784V124H681.511L681.395 121.784C682.168 121.784 683.018 121.667 683.946 121.434C684.874 121.2 685.492 120.773 685.802 120.151Z" fill="white"/>
<path d="M771.259 43.5108C770.795 41.4889 770.292 39.5447 769.751 37.6783C769.21 35.7341 768.514 34.0232 767.664 32.5456C766.891 30.9903 765.886 29.746 764.649 28.8128C763.489 27.8018 761.981 27.2574 760.126 27.1797C758.657 27.1019 757.227 27.3352 755.835 27.8796C754.521 28.424 753.361 29.2794 752.356 30.4459C751.351 31.5347 750.539 32.8567 749.921 34.412C749.38 35.9674 749.109 37.6783 749.109 39.5447C749.186 42.7331 749.998 45.3384 751.544 47.3603C753.168 49.3045 755.139 51.0542 757.459 52.6096C759.855 54.1649 762.407 55.6425 765.112 57.0423C767.896 58.4421 770.447 60.1141 772.766 62.0583C775.163 63.9247 777.134 66.2578 778.681 69.0574C780.227 71.857 781 75.4343 781 79.7893C781 83.2888 780.382 86.3995 779.145 89.1213C777.985 91.7654 776.361 93.9818 774.274 95.7705C772.264 97.4813 769.983 98.8034 767.432 99.7366C764.881 100.67 762.291 101.136 759.662 101.136C757.652 101.214 755.719 101.02 753.864 100.553C752.085 100.164 750.385 99.6588 748.761 99.0367C747.215 98.4145 745.785 97.7535 744.47 97.0536C743.156 96.3537 741.996 95.6927 740.991 95.0706C740.45 94.4484 739.948 93.4763 739.484 92.1543C739.097 90.8322 738.788 89.4324 738.556 87.9548C738.401 86.3995 738.363 84.8053 738.44 83.1722C738.595 81.4613 738.942 79.867 739.484 78.3895C739.87 77.8451 740.334 77.4174 740.875 77.1063C741.494 76.7952 742.112 76.6786 742.731 76.7563C743.349 76.7563 743.929 76.9897 744.47 77.4563C745.089 77.8451 745.553 78.4283 745.862 79.206C746.326 81.0724 746.79 83.1333 747.253 85.3885C747.795 87.566 748.529 89.588 749.457 91.4544C750.462 93.3208 751.776 94.8761 753.4 96.1204C755.023 97.3647 757.149 98.0257 759.778 98.1035C761.711 98.1812 763.412 97.9091 764.881 97.2869C766.349 96.587 767.586 95.6538 768.591 94.4873C769.597 93.3208 770.331 91.9599 770.795 90.4045C771.336 88.7714 771.607 87.0216 771.607 85.1552C771.607 81.7335 770.795 78.9727 769.171 76.873C767.625 74.6955 765.654 72.7902 763.257 71.1571C760.938 69.524 758.386 68.0075 755.603 66.6077C752.897 65.2079 750.346 63.5748 747.949 61.7084C745.63 59.842 743.658 57.5867 742.035 54.9426C740.489 52.2208 739.716 48.7212 739.716 44.444C739.716 40.9445 740.295 37.9116 741.455 35.3452C742.615 32.7012 744.2 30.5626 746.21 28.9294C748.22 27.2963 750.539 26.0909 753.168 25.3133C755.796 24.4578 758.58 24.069 761.517 24.1468C763.218 24.3023 764.765 24.5745 766.156 24.9633C767.625 25.2744 768.978 25.6632 770.215 26.1298C771.452 26.5964 772.573 27.1019 773.578 27.6463C774.66 28.1907 775.704 28.6961 776.709 29.1627C777.482 30.3293 777.985 31.6902 778.217 33.2455C778.526 34.7231 778.642 36.2007 778.565 37.6783C778.565 39.1558 778.449 40.5168 778.217 41.7611C777.985 43.0053 777.714 43.8608 777.405 44.3274C777.096 44.7162 776.671 45.0662 776.129 45.3772C775.665 45.6105 775.124 45.7661 774.506 45.8438C773.965 45.8438 773.385 45.6883 772.766 45.3772C772.225 44.9884 771.723 44.3663 771.259 43.5108Z" fill="white"/>
</svg>
